# xmcd
#
# Track frame offsets: 
#        150
#        16048
#        31132
#        49740
#        67062
#        78466
#        91788
#        108070
#        127840
#        149806
#        176629
#
# Disc length: 2559 seconds
#
# Revision: 0
# Processed by: cddbd v1.5.2PL0 Copyright (c) Steve Scherf et al.
# Submitted via: ExactAudioCopy v1.1
#
DISCID=8709fd0b
DTITLE=The Miltones - The Miltones
DYEAR=2017
DGENRE=
TTITLE0=Pursed Lips
TTITLE1=Carlos
TTITLE2=Glory
TTITLE3=The Wanderer
TTITLE4=Dancing With The Dead
TTITLE5=Firing Way
TTITLE6=Mother's Ruin
TTITLE7=Wildfire
TTITLE8=Gypsy Queen
TTITLE9=Darling
TTITLE10=Song For A Friend
EXTD=
EXTT0=
EXTT1=
EXTT2=
EXTT3=
EXTT4=
EXTT5=
EXTT6=
EXTT7=
EXTT8=
EXTT9=
EXTT10=
PLAYORDER=
